HIERARCHY
ROOT Hips
{
	OFFSET 0.000000 0.000000 0.000000
	CHANNELS 6 Xposition Yposition Zposition Xrotation Yrotation Zrotation
	JOINT LeftUpLeg_virtual
	{
		OFFSET 0.000000 0.000000 0.000000
		CHANNELS 3 Xrotation Yrotation Zrotation
		JOINT LeftUpLeg
		{
			OFFSET 15.427100 -6.655098 0.678600
			CHANNELS 3 Xrotation Yrotation Zrotation
			JOINT LeftLeg
			{
				OFFSET 4.081073 -39.591068 13.024000
				CHANNELS 3 Xrotation Yrotation Zrotation
				JOINT LeftFoot
				{
					OFFSET -4.081074 -37.707932 -15.979700
					CHANNELS 3 Xrotation Yrotation Zrotation
					JOINT LeftToeBase
					{
						OFFSET 5.346399 -15.068900 20.645000
						CHANNELS 3 Xrotation Yrotation Zrotation
						JOINT LeftToe_End
						{
							OFFSET 2.754700 0.931300 11.300900
							CHANNELS 3 Xrotation Yrotation Zrotation
							End Site
							{
								OFFSET 0 0 0
							}
						}
					}
				}
			}
		}
	}
	JOINT RightUpLeg_virtual
	{
		OFFSET 0.000000 0.000000 0.000000
		CHANNELS 3 Xrotation Yrotation Zrotation
		JOINT RightUpLeg
		{
			OFFSET -15.569500 -6.655098 0.678600
			CHANNELS 3 Xrotation Yrotation Zrotation
			JOINT RightLeg
			{
				OFFSET -4.081825 -39.591045 13.023800
				CHANNELS 3 Xrotation Yrotation Zrotation
				JOINT RightFoot
				{
					OFFSET 4.081824 -37.707954 -15.979600
					CHANNELS 3 Xrotation Yrotation Zrotation
					JOINT RightToeBase
					{
						OFFSET -5.346400 -15.068900 20.645000
						CHANNELS 3 Xrotation Yrotation Zrotation
						JOINT RightToe_End
						{
							OFFSET -2.754700 0.931300 11.300900
							CHANNELS 3 Xrotation Yrotation Zrotation
							End Site
							{
								OFFSET 0 0 0
							}
						}
					}
				}
			}
		}
	}
	JOINT Spine_virtual
	{
		OFFSET 0.000000 0.000000 0.000000
		CHANNELS 3 Xrotation Yrotation Zrotation
		JOINT Spine
		{
			OFFSET -0.279200 12.230698 -2.892100
			CHANNELS 3 Xrotation Yrotation Zrotation
			JOINT Spine1
			{
				OFFSET -0.232667 10.192268 -1.242267
				CHANNELS 3 Xrotation Yrotation Zrotation
				JOINT Spine1_split
				{
					OFFSET -0.232667 10.192268 -1.242267
					CHANNELS 3 Xrotation Yrotation Zrotation
					JOINT Spine2
					{
						OFFSET -0.232667 10.192268 -1.242267
						CHANNELS 3 Xrotation Yrotation Zrotation
						JOINT Neck_virtual
						{
							OFFSET 0.000000 0.000000 0.000000
							CHANNELS 3 Xrotation Yrotation Zrotation
							JOINT Neck
							{
								OFFSET -0.418800 17.814194 8.416900
								CHANNELS 3 Xrotation Yrotation Zrotation
								JOINT Head
								{
									OFFSET 0.000000 7.031097 3.806800
									CHANNELS 3 Xrotation Yrotation Zrotation
									JOINT HeadTop_End
									{
										OFFSET 0.000000 24.646606 12.978600
										CHANNELS 3 Xrotation Yrotation Zrotation
										End Site
										{
											OFFSET 0 0 0
										}
									}
								}
							}
						}
						JOINT LeftShoulder_virtual
						{
							OFFSET 0.000000 0.000000 0.000000
							CHANNELS 3 Xrotation Yrotation Zrotation
							JOINT LeftShoulder
							{
								OFFSET 8.476499 7.247704 -3.868750
								CHANNELS 3 Xrotation Yrotation Zrotation
								JOINT LeftShoulder_split
								{
									OFFSET 8.476499 7.247704 -3.868750
									CHANNELS 3 Xrotation Yrotation Zrotation
									JOINT LeftArm
									{
										OFFSET 9.308998 -2.777710 0.208600
										CHANNELS 3 Xrotation Yrotation Zrotation
										JOINT LeftForeArm
										{
											OFFSET 29.972298 0.000000 0.000000
											CHANNELS 3 Xrotation Yrotation Zrotation
											JOINT LeftHand
											{
												OFFSET 26.026505 0.000000 0.000000
												CHANNELS 3 Xrotation Yrotation Zrotation
												End Site
												{
													OFFSET 0 0 0
												}
											}
										}
									}
								}
							}
						}
						JOINT RightShoulder_virtual
						{
							OFFSET 0.000000 0.000000 0.000000
							CHANNELS 3 Xrotation Yrotation Zrotation
							JOINT RightShoulder
							{
								OFFSET -7.570500 7.247704 -3.868750
								CHANNELS 3 Xrotation Yrotation Zrotation
								JOINT RightShoulder_split
								{
									OFFSET -7.570500 7.247704 -3.868750
									CHANNELS 3 Xrotation Yrotation Zrotation
									JOINT RightArm
									{
										OFFSET -9.308998 -2.777710 0.208500
										CHANNELS 3 Xrotation Yrotation Zrotation
										JOINT RightForeArm
										{
											OFFSET -29.972300 0.000000 0.000000
											CHANNELS 3 Xrotation Yrotation Zrotation
											JOINT RightHand
											{
												OFFSET -26.026505 0.000000 0.000000
												CHANNELS 3 Xrotation Yrotation Zrotation
												End Site
												{
													OFFSET 0 0 0
												}
											}
										}
									}
								}
							}
						}
					}
				}
			}
		}
	}
}
MOTION
Frames: 10
Frame Time: 0.03333333
7.095239 94.407738 -12.979351 0.000000 0.000000 0.000000 -1.463915 -4.462414 -1.885385 -9.252499 32.363922 11.790917 18.041941 3.942967 3.341991 -8.861829 14.066890 -15.124460 2.453400 -3.352357 -0.242259 0.000000 0.000000 0.000000 -0.745267 -2.861284 -2.087558 -11.043766 -9.976722 -10.115945 6.058857 7.670355 4.579233 1.444459 5.980109 14.803069 7.213787 0.366103 -14.928738 0.000000 0.000000 0.000000 -2.714314 2.736205 -2.494346 0.164320 1.513781 -1.784744 4.106621 -4.067346 0.392849 0.075862 0.110084 -0.097727 0.000000 0.000000 0.000000 5.658177 -1.686545 0.716675 1.873219 12.321102 8.250581 -18.609689 -7.791263 -7.186410 0.000000 0.000000 0.000000 3.012446 -3.198779 0.127696 0.790245 3.715105 -2.153821 -2.862379 -3.131392 -1.953547 28.154436 -55.879581 -35.154120 10.441092 -24.622630 4.644594 0.000000 0.000000 0.000000 4.289498 -3.310850 0.032648 0.072254 4.524989 -13.377694 -0.975627 -3.156353 4.250092 -34.058038 -8.204434 34.584762 -162.243781 70.134869 159.622942 0.000000 0.000000 0.000000 
6.890882 94.371117 -12.969826 0.000000 0.000000 0.000000 -1.526123 -3.956777 -1.952773 -9.486048 32.185668 12.138104 18.142728 4.074387 3.296687 -8.741335 14.059252 -15.408666 2.536901 -3.461973 0.086671 0.000000 0.000000 0.000000 -0.803996 -2.336607 -2.146026 -10.707696 -9.913921 -9.832233 6.291744 7.675080 4.603349 1.103844 5.382705 14.689606 7.196239 0.290860 -14.896277 0.000000 0.000000 0.000000 -2.823565 3.058026 -2.551368 0.194493 1.612833 -1.570825 4.054914 -3.899083 0.445130 0.076548 0.105251 -0.095951 0.000000 0.000000 0.000000 5.572782 -1.531358 0.781104 2.224218 12.323864 8.218175 -18.697383 -8.501040 -7.690668 0.000000 0.000000 0.000000 3.009068 -3.053182 0.217227 0.703602 3.759975 -2.238561 -2.731740 -3.380161 -1.924351 28.726905 -56.237066 -34.853076 9.896775 -24.612938 4.411285 0.000000 0.000000 0.000000 4.199718 -3.166233 0.072619 0.067188 4.573529 -12.669095 -0.623975 -3.199338 4.211020 -31.555693 -6.161032 35.327968 -163.448503 71.525454 160.620122 0.000000 0.000000 0.000000 
6.676569 94.339142 -12.954052 0.000000 0.000000 0.000000 -1.591859 -3.433237 -2.020283 -9.720753 31.998412 12.487464 18.221355 4.224711 3.244220 -8.585197 14.070629 -15.659160 2.633472 -3.564271 0.406521 0.000000 0.000000 0.000000 -0.870405 -1.813970 -2.205800 -10.353530 -9.895273 -9.539169 6.510747 7.685015 4.628599 0.793251 4.797460 14.590140 7.135777 0.228365 -14.870676 0.000000 0.000000 0.000000 -2.920087 3.401692 -2.614062 0.224803 1.671972 -1.363076 3.994531 -3.732312 0.489879 0.078720 0.105707 -0.095366 0.000000 0.000000 0.000000 5.467756 -1.382961 0.839288 2.587762 12.341392 8.162441 -18.749708 -9.231550 -8.230181 0.000000 0.000000 0.000000 2.982579 -2.907094 0.295673 0.615170 3.806288 -2.319094 -2.564163 -3.658562 -1.876926 29.347960 -56.613987 -34.483836 9.347520 -24.569657 4.146980 0.000000 0.000000 0.000000 4.097659 -3.023662 0.107415 0.067730 4.614043 -11.855281 -0.267654 -3.216477 4.165345 -28.956655 -3.974887 35.952439 -164.744245 72.922781 161.713813 0.000000 0.000000 0.000000 
6.455071 94.309196 -12.936306 0.000000 0.000000 0.000000 -1.649668 -2.901449 -2.073624 -9.953237 31.796737 12.825791 18.279126 4.373784 3.186528 -8.400023 14.095235 -15.878781 2.760604 -3.654547 0.695094 0.000000 0.000000 0.000000 -0.936546 -1.303498 -2.251267 -10.010680 -9.927934 -9.254002 6.732841 7.700901 4.645105 0.501881 4.239530 14.490762 7.047883 0.184614 -14.849974 0.000000 0.000000 0.000000 -3.002243 3.762955 -2.667920 0.255340 1.694450 -1.165983 3.923730 -3.563775 0.522392 0.083627 0.110555 -0.099909 0.000000 0.000000 0.000000 5.332604 -1.236072 0.882199 2.933627 12.359039 8.087571 -18.766416 -9.961903 -8.780813 0.000000 0.000000 0.000000 2.929355 -2.754920 0.359872 0.523872 3.855726 -2.378267 -2.363870 -3.963960 -1.824855 30.081215 -56.997126 -33.990027 8.780445 -24.505489 3.842740 0.000000 0.000000 0.000000 3.982058 -2.879164 0.132452 0.071962 4.644979 -10.941865 0.085787 -3.203075 4.115698 -26.215543 -1.633085 36.402477 -166.179527 74.328516 162.952290 0.000000 0.000000 0.000000 
6.236321 94.276108 -12.920303 0.000000 0.000000 0.000000 -1.691769 -2.373110 -2.098183 -10.181880 31.575237 13.145176 18.312591 4.492237 3.120203 -8.179642 14.117362 -16.096116 2.889672 -3.729509 0.938922 0.000000 0.000000 0.000000 -0.985377 -0.791803 -2.274563 -9.702817 -10.010478 -8.990411 6.981393 7.719915 4.649748 0.199932 3.715428 14.353265 6.979913 0.158941 -14.827291 0.000000 0.000000 0.000000 -3.070040 4.138763 -2.694300 0.295030 1.683512 -0.988241 3.839462 -3.391284 0.540483 0.088273 0.122544 -0.102354 0.000000 0.000000 0.000000 5.162033 -1.085323 0.908467 3.227245 12.359223 7.998251 -18.708240 -10.696804 -9.304446 0.000000 0.000000 0.000000 2.851917 -2.593136 0.412894 0.429326 3.924255 -2.401461 -2.198542 -4.239521 -1.804474 30.977285 -57.378008 -33.337655 8.186766 -24.431804 3.498200 0.000000 0.000000 0.000000 3.844204 -2.731137 0.146611 0.077498 4.653107 -9.952102 0.460721 -3.129588 4.060202 -23.303193 0.851478 36.685233 -167.812366 75.772295 164.390605 0.000000 0.000000 0.000000 
6.024124 94.235359 -12.905396 0.000000 0.000000 0.000000 -1.712272 -1.864778 -2.088924 -10.414608 31.335900 13.440553 18.337950 4.567432 3.043552 -7.924954 14.127291 -16.315802 2.994904 -3.789613 1.129231 0.000000 0.000000 0.000000 -1.008875 -0.284805 -2.270363 -9.450726 -10.131389 -8.746532 7.263268 7.741510 4.632916 -0.143494 3.231329 14.159290 6.955351 0.150914 -14.800503 0.000000 0.000000 0.000000 -3.118552 4.515209 -2.684585 0.345615 1.644370 -0.830937 3.735571 -3.214195 0.547676 0.095425 0.140364 -0.104606 0.000000 0.000000 0.000000 4.950305 -0.927539 0.923553 3.458112 12.333576 7.900421 -18.536152 -11.461881 -9.754121 0.000000 0.000000 0.000000 2.742218 -2.420053 0.457209 0.330963 4.022931 -2.389388 -2.077500 -4.509588 -1.803755 32.051588 -57.741716 -32.525197 7.572307 -24.359183 3.124410 0.000000 0.000000 0.000000 3.674821 -2.578127 0.152494 0.083819 4.647367 -8.911501 0.842726 -3.023184 3.991750 -20.205901 3.456643 36.820983 -169.661025 77.315563 166.046734 0.000000 0.000000 0.000000 
5.815001 94.187469 -12.893532 0.000000 0.000000 0.000000 -1.706864 -1.389478 -2.047741 -10.656383 31.087729 13.711288 18.369655 4.597327 2.955879 -7.645483 14.128159 -16.537642 3.090245 -3.834244 1.255237 0.000000 0.000000 0.000000 -1.001224 0.202914 -2.237503 -9.268579 -10.277060 -8.516858 7.581780 7.773608 4.590729 -0.534146 2.798495 13.918930 6.932881 0.163163 -14.769673 0.000000 0.000000 0.000000 -3.135157 4.881207 -2.642946 0.405071 1.583109 -0.690839 3.610396 -3.028129 0.550185 0.101675 0.151871 -0.107136 0.000000 0.000000 0.000000 4.702308 -0.759246 0.934285 3.631750 12.281789 7.799853 -18.232529 -12.286523 -10.097761 0.000000 0.000000 0.000000 2.597585 -2.234642 0.496554 0.227159 4.154548 -2.354328 -2.005023 -4.775515 -1.819226 33.298350 -58.076265 -31.568844 6.952519 -24.293016 2.743058 0.000000 0.000000 0.000000 3.464236 -2.419499 0.156967 0.085432 4.634852 -7.856759 1.207828 -2.885900 3.898589 -16.942183 6.147639 36.866793 -171.781471 79.027051 167.974446 0.000000 0.000000 0.000000 
5.611301 94.130341 -12.882866 0.000000 0.000000 0.000000 -1.673283 -0.960002 -1.981355 -10.906581 30.857975 13.957063 18.405652 4.599263 2.855745 -7.383864 14.140361 -16.734636 3.200555 -3.863753 1.309221 0.000000 0.000000 0.000000 -0.959243 0.652087 -2.182265 -9.164776 -10.436622 -8.293688 7.941571 7.827216 4.519202 -0.946468 2.434863 13.666654 6.863336 0.195667 -14.736008 0.000000 0.000000 0.000000 -3.106118 5.216428 -2.576922 0.470465 1.504884 -0.562169 3.463867 -2.830607 0.552670 0.101003 0.154761 -0.109653 0.000000 0.000000 0.000000 4.420227 -0.576270 0.947220 3.756987 12.193367 7.698788 -17.800783 -13.200200 -10.319570 0.000000 0.000000 0.000000 2.420102 -2.038118 0.534706 0.118369 4.314020 -2.314558 -1.953328 -5.014505 -1.851598 34.677676 -58.372470 -30.512931 6.346297 -24.231635 2.376267 0.000000 0.000000 0.000000 3.211839 -2.250920 0.165498 0.083066 4.620241 -6.823543 1.546767 -2.750883 3.773735 -13.558993 8.881428 36.885777 -174.287194 80.972343 170.286930 0.000000 0.000000 0.000000 
5.409790 94.066711 -12.871750 0.000000 0.000000 0.000000 -1.602682 -0.577493 -1.903084 -11.163248 30.667334 14.180687 18.433364 4.590448 2.747787 -7.165089 14.180283 -16.901170 3.323184 -3.879458 1.298248 0.000000 0.000000 0.000000 -0.888545 1.035554 -2.111119 -9.138285 -10.597998 -8.074925 8.313687 7.910140 4.419887 -1.354732 2.150665 13.437543 6.737567 0.241710 -14.698545 0.000000 0.000000 0.000000 -3.024732 5.512758 -2.498514 0.531819 1.414585 -0.435677 3.296588 -2.620449 0.558125 0.098765 0.151915 -0.113295 0.000000 0.000000 0.000000 4.113177 -0.378717 0.966500 3.852296 12.070593 7.594458 -17.264017 -14.240494 -10.418264 0.000000 0.000000 0.000000 2.207681 -1.828195 0.571207 0.004554 4.488955 -2.289488 -1.877677 -5.218124 -1.873486 36.138357 -58.632222 -29.401383 5.770958 -24.170368 2.042193 0.000000 0.000000 0.000000 2.925071 -2.068164 0.183766 0.073973 4.612905 -5.844034 1.838540 -2.615088 3.642177 -10.122048 11.630571 36.930133 -177.594890 83.186950 173.400649 0.000000 0.000000 0.000000 
5.210394 94.001053 -12.865147 0.000000 0.000000 0.000000 -1.498222 -0.234783 -1.823377 -11.424501 30.516954 14.393104 18.448286 4.567083 2.639723 -6.980981 14.251273 -17.062938 3.422549 -3.884484 1.240888 0.000000 0.000000 0.000000 -0.783819 1.359304 -2.033753 -9.170862 -10.752857 -7.852031 8.678581 8.015777 4.296470 -1.751733 1.938231 13.231486 6.594159 0.290175 -14.652680 0.000000 0.000000 0.000000 -2.890275 5.768874 -2.420270 0.581038 1.317406 -0.306429 3.115069 -2.397229 0.564714 0.094915 0.152771 -0.116194 0.000000 0.000000 0.000000 3.796961 -0.165854 0.989854 3.928743 11.905151 7.488475 -16.670070 -15.425639 -10.407916 0.000000 0.000000 0.000000 1.968317 -1.605295 0.603838 -0.112187 4.663760 -2.293058 -1.776280 -5.368183 -1.840036 37.633526 -58.865063 -28.264694 5.235212 -24.104735 1.751550 0.000000 0.000000 0.000000 2.619497 -1.869144 0.211807 0.059994 4.607853 -4.937431 2.095593 -2.484795 3.489912 -6.702334 14.364494 37.047530 176.656095 85.682346 178.961297 0.000000 0.000000 0.000000 
